<?xml version="1.0" standalone="no"?>
<!DOCTYPE svg PUBLIC "-//W3C//DTD SVG 20010904//EN"
 "http://www.w3.org/TR/2001/REC-SVG-20010904/DTD/svg10.dtd">
<svg version="1.0" xmlns="http://www.w3.org/2000/svg"
 width="64.000000pt" height="64.000000pt" viewBox="0 0 64.000000 64.000000"
 preserveAspectRatio="xMidYMid meet">

<g transform="translate(0.000000,64.000000) scale(0.100000,-0.100000)"
fill="#000000" stroke="none">
<path d="M186 562 l-139 -3 5 -117 c9 -200 64 -312 183 -379 71 -39 93 -40
154 -11 133 64 201 207 201 425 l0 82 -132 3 c-73 2 -195 2 -272 0z m44 -142
c10 -5 36 -32 58 -60 l40 -50 38 48 c50 62 62 72 97 72 22 0 28 -4 23 -16 -3
-9 -6 -56 -6 -105 0 -58 -4 -88 -10 -84 -5 3 -10 1 -10 -5 0 -6 -4 -8 -10 -5
-5 3 -10 48 -10 98 l-1 92 -56 -63 -57 -64 -57 64 -58 63 -3 -100 -2 -100 -6
100 -6 100 -2 -100 c-3 -129 -19 -114 -24 23 -3 101 -3 102 20 102 13 0 32 -4
42 -10z m73 -25 c9 -19 20 -35 25 -35 5 0 16 16 25 35 9 19 22 35 29 34 10 0
10 -2 1 -6 -7 -2 -13 -9 -13 -15 0 -5 -10 -23 -21 -40 -20 -27 -22 -28 -34
-11 -36 54 -46 73 -38 73 5 0 17 -16 26 -35z m-83 -205 c0 -5 -14 -10 -31 -10
-17 0 -28 4 -24 10 3 6 17 10 31 10 13 0 24 -4 24 -10z m275 0 c4 -6 -8 -10
-30 -10 -22 0 -34 4 -30 10 3 6 17 10 30 10 13 0 27 -4 30 -10z"/>
<path d="M461 364 c0 -11 3 -14 6 -6 3 7 2 16 -1 19 -3 4 -6 -2 -5 -13z"/>
<path d="M463 290 c0 -30 2 -43 4 -27 2 15 2 39 0 55 -2 15 -4 2 -4 -28z"/>
</g>
</svg>
